<svg width="75" height="74" viewBox="0 0 75 74" fill="none" xmlns="http://www.w3.org/2000/svg">
<path opacity="0.4" d="M13.0372 71.1542H61.8963C67.3514 71.1542 71.7986 66.7071 71.7986 61.252V12.3929C71.7986 6.93775 67.3514 2.49063 61.8963 2.49063H13.0372C7.58208 2.49063 3.13495 6.93775 3.13495 12.3929V61.252C3.13495 66.7368 7.58208 71.1542 13.0372 71.1542Z" fill="url(#paint0_linear_1_1965)"/>
<path opacity="0.6" d="M61.9259 2.49039C67.381 2.49039 71.8282 6.93752 71.8282 12.3927V61.2517C71.8282 66.7069 67.381 71.154 61.9259 71.154H13.0372C7.58204 71.154 3.13491 66.7069 3.13491 61.2517V12.3927C3.13491 6.93752 7.58204 2.49039 13.0372 2.49039H61.9259ZM61.9259 0H13.0372C6.21826 0 0.644531 5.54408 0.644531 12.3927V61.2517C0.644531 68.0707 6.18861 73.6444 13.0372 73.6444H61.8963C68.7152 73.6444 74.2889 68.1003 74.2889 61.2517V12.3927C74.3186 5.57373 68.7448 0 61.9259 0Z" fill="#554A44"/>
<path d="M58.9611 46.6653C57.8345 43.0483 55.3145 40.1428 52.1422 38.7197C55.0476 36.9705 56.8562 33.5907 56.2336 29.8255C55.6406 26.3567 52.913 23.5106 49.4443 22.8287C43.9002 21.7614 39.0676 25.9713 39.0676 31.3079C39.0676 34.4505 40.7576 37.2077 43.2776 38.7197C40.8465 39.787 38.8305 41.7438 37.4963 44.2045C36.1622 41.7438 34.1462 39.8167 31.7151 38.7197C34.6205 36.9705 36.429 33.5907 35.8064 29.8255C35.2135 26.3567 32.4859 23.5106 29.0171 22.8287C23.4731 21.7614 18.6405 25.9713 18.6405 31.3079C18.6405 34.4505 20.3304 37.2077 22.8505 38.7197C19.6782 40.1428 17.1581 43.0483 16.0315 46.6653C15.3496 48.7999 16.9506 50.9938 19.1742 50.9938H35.3617C36.1918 50.9938 36.9034 50.6973 37.4667 50.223C38.03 50.6973 38.7712 50.9938 39.5717 50.9938H55.7592C58.0421 50.9938 59.6134 48.7999 58.9611 46.6653Z" fill="url(#paint1_linear_1_1965)"/>
<defs>
<linearGradient id="paint0_linear_1_1965" x1="37.4879" y1="71.1672" x2="37.4879" y2="2.4898" gradientUnits="userSpaceOnUse">
<stop/>
<stop offset="1"/>
</linearGradient>
<linearGradient id="paint1_linear_1_1965" x1="37.4913" y1="22.6622" x2="37.4913" y2="50.9938" gradientUnits="userSpaceOnUse">
<stop stop-color="#DFA377"/>
<stop offset="1" stop-color="#9C5A32"/>
</linearGradient>
</defs>
</svg>
