<svg width="74" height="74" viewBox="0 0 74 74" fill="none" xmlns="http://www.w3.org/2000/svg">
<path opacity="0.4" d="M12.3927 71.1541H61.2518C66.7069 71.1541 71.154 66.707 71.154 61.2518V12.3927C71.154 6.93761 66.7069 2.49048 61.2518 2.49048H12.3927C6.93755 2.49048 2.49042 6.93761 2.49042 12.3927V61.2518C2.49042 66.7366 6.93755 71.1541 12.3927 71.1541Z" fill="url(#paint0_linear_1_29)"/>
<path opacity="0.6" d="M61.2814 2.49038C66.7365 2.49038 71.1836 6.93751 71.1836 12.3926V61.2517C71.1836 66.7069 66.7365 71.154 61.2814 71.154H12.3926C6.93751 71.154 2.49038 66.7069 2.49038 61.2517V12.3926C2.49038 6.93751 6.93751 2.49038 12.3926 2.49038H61.2814ZM61.2814 0H12.3926C5.57373 0 0 5.54408 0 12.3926V61.2517C0 68.0706 5.54408 73.6444 12.3926 73.6444H61.2517C68.0706 73.6444 73.6444 68.1003 73.6444 61.2517V12.3926C73.674 5.57373 68.1003 0 61.2814 0Z" fill="#554A44"/>
<path d="M57.5458 35.2804L38.4825 17.5215C37.5634 16.6618 36.1107 16.6618 35.1916 17.5215L16.1283 35.2804C14.5273 36.7924 15.5946 39.4607 17.7885 39.4607H20.9015V53.0689C20.9015 55.1146 22.5618 56.8045 24.6371 56.8045H49.0963C51.142 56.8045 52.8319 55.1442 52.8319 53.0689V39.4607H55.9449C58.0795 39.4607 59.1468 36.7628 57.5458 35.2804ZM45.42 44.1747C44.323 46.8133 41.299 48.0585 38.6307 46.9615C38.3935 46.8726 38.186 46.754 37.9785 46.6354C38.2453 48.2364 38.779 49.8077 39.6091 51.2308H34.0354C34.8655 49.8077 35.3992 48.2364 35.666 46.6058C35.4584 46.7243 35.2509 46.8429 35.0137 46.9319C32.3751 48.0288 29.3214 46.754 28.2541 44.1154C27.335 41.8918 28.0466 39.3421 30.0033 37.9487L36.8519 32.9679L43.7004 37.9487C45.6275 39.4014 46.3391 41.9511 45.42 44.1747Z" fill="url(#paint1_linear_1_29)"/>
<defs>
<linearGradient id="paint0_linear_1_29" x1="36.8434" y1="71.1607" x2="36.8434" y2="2.4833" gradientUnits="userSpaceOnUse">
<stop/>
<stop offset="1"/>
</linearGradient>
<linearGradient id="paint1_linear_1_29" x1="36.8381" y1="16.8767" x2="36.8381" y2="56.8045" gradientUnits="userSpaceOnUse">
<stop stop-color="#DFA377"/>
<stop offset="1" stop-color="#9C5A32"/>
</linearGradient>
</defs>
</svg>
