<svg width="74" height="74" viewBox="0 0 74 74" fill="none" xmlns="http://www.w3.org/2000/svg">
<path opacity="0.4" d="M12.6816 71.1541H61.5407C66.9958 71.1541 71.4429 66.707 71.4429 61.2518V12.3927C71.4429 6.93761 66.9958 2.49048 61.5407 2.49048H12.6816C7.22645 2.49048 2.77936 6.93761 2.77936 12.3927V61.2518C2.77936 66.7366 7.19681 71.1541 12.6816 71.1541Z" fill="url(#paint0_linear_1_1970)"/>
<path opacity="0.6" d="M61.5407 2.49038C66.9959 2.49038 71.443 6.93751 71.443 12.3926V61.2517C71.443 66.7069 66.9959 71.154 61.5407 71.154H12.6816C7.22649 71.154 2.7794 66.7069 2.7794 61.2517V12.3926C2.7794 6.93751 7.22649 2.49038 12.6816 2.49038H61.5407ZM61.5407 0H12.6816C5.86271 0 0.289001 5.54408 0.289001 12.3926V61.2517C0.289001 68.0706 5.83306 73.6444 12.6816 73.6444H61.5407C68.3596 73.6444 73.9334 68.1003 73.9334 61.2517V12.3926C73.9334 5.57373 68.3893 0 61.5407 0Z" fill="#554A44"/>
<path d="M56.7082 32.1375H53.5063C53.1505 30.8923 52.6465 29.6768 52.0239 28.5798L54.2771 26.3266C55.0183 25.5855 55.0183 24.3699 54.2771 23.6287L50.334 19.6856C49.5928 18.9444 48.3773 18.9444 47.6361 19.6856L45.3829 21.9388C44.2563 21.3162 43.0704 20.8419 41.8252 20.4564V17.2545C41.8252 16.1872 40.9654 15.3274 39.8981 15.3274H34.3244C33.2571 15.3274 32.3973 16.1872 32.3973 17.2545V20.4564C31.1521 20.8122 29.9365 21.3162 28.8396 21.9388L26.5864 19.6856C25.8452 18.9444 24.6296 18.9444 23.8885 19.6856L19.9453 23.6287C19.2041 24.3699 19.2041 25.5855 19.9453 26.3266L22.1986 28.5798C21.576 29.7064 21.1016 30.8923 20.7162 32.1375H17.5142C16.4469 32.1375 15.5872 32.9973 15.5872 34.0646V39.6384C15.5872 40.7057 16.4469 41.5655 17.5142 41.5655H20.7162C21.072 42.8107 21.576 44.0262 22.1986 45.1232L19.9453 47.3764C19.2041 48.1175 19.2041 49.3331 19.9453 50.0743L23.8885 54.0174C24.6296 54.7586 25.8452 54.7586 26.5864 54.0174L28.8396 51.7642C29.9662 52.3868 31.1521 52.8611 32.3973 53.2466V56.4485C32.3973 57.5158 33.2571 58.3756 34.3244 58.3756H39.8981C40.9654 58.3756 41.8252 57.5158 41.8252 56.4485V53.2466C43.0704 52.8908 44.2859 52.3868 45.3829 51.7642L47.6361 54.0174C48.3773 54.7586 49.5928 54.7586 50.334 54.0174L54.2771 50.0743C55.0183 49.3331 55.0183 48.1175 54.2771 47.3764L52.0239 45.1232C52.6465 43.9966 53.1209 42.8107 53.5063 41.5655H56.7082C57.7755 41.5655 58.6353 40.7057 58.6353 39.6384V34.035C58.6057 32.9677 57.7459 32.1375 56.7082 32.1375ZM37.1112 48.8587C30.4702 48.8587 25.0744 43.4629 25.0744 36.8219C25.0744 30.1808 30.4702 24.785 37.1112 24.785C43.7523 24.785 49.1481 30.1808 49.1481 36.8219C49.1481 43.4629 43.7523 48.8587 37.1112 48.8587ZM47.2803 36.8219C47.2803 42.4549 42.7146 46.9909 37.1112 46.9909C31.4782 46.9909 26.9422 42.4252 26.9422 36.8219C26.9422 31.1888 31.5079 26.6528 37.1112 26.6528C42.7443 26.6528 47.2803 31.1888 47.2803 36.8219Z" fill="url(#paint1_linear_1_1970)"/>
<defs>
<linearGradient id="paint0_linear_1_1970" x1="37.1155" y1="71.1607" x2="37.1155" y2="2.4833" gradientUnits="userSpaceOnUse">
<stop/>
<stop offset="1"/>
</linearGradient>
<linearGradient id="paint1_linear_1_1970" x1="37.1112" y1="15.3274" x2="37.1112" y2="58.3756" gradientUnits="userSpaceOnUse">
<stop stop-color="#DFA377"/>
<stop offset="1" stop-color="#9C5A32"/>
</linearGradient>
</defs>
</svg>
